<svg xmlns="http://www.w3.org/2000/svg" viewBox="0 0 500 500"><g id="freepik--background-simple--inject-4"><path d="M111.73,92.76c27.62-14.6,63-17.57,91.11-2.57,24.22,12.92,32.93,39.09,41.42,63.38,11.87,34,32.33,73,74.32,49.82,28.7-15.87,58.18-44.7,93.89-29.1,32.47,14.18,39.34,54.92,29.8,85.77C411.33,360,285.53,398,193.07,367.36,108.29,339.27,12.19,236.81,60.62,142.66,71.13,122.23,89.86,104.32,111.73,92.76Z" style="fill:#0095DA"></path><path d="M111.73,92.76c27.62-14.6,63-17.57,91.11-2.57,24.22,12.92,32.93,39.09,41.42,63.38,11.87,34,32.33,73,74.32,49.82,28.7-15.87,58.18-44.7,93.89-29.1,32.47,14.18,39.34,54.92,29.8,85.77C411.33,360,285.53,398,193.07,367.36,108.29,339.27,12.19,236.81,60.62,142.66,71.13,122.23,89.86,104.32,111.73,92.76Z" style="fill:#fff;isolation:isolate;opacity:0.9"></path></g><g id="freepik--Shadow--inject-4"><ellipse id="freepik--path--inject-4" cx="250" cy="416.24" rx="193.89" ry="11.32" style="fill:#f5f5f5"></ellipse></g><g id="freepik--Device--inject-4"><rect x="228.89" y="321.17" width="48.6" height="96.6" style="fill:#263238"></rect><rect x="228.89" y="352.26" width="48.6" height="14.9" style="opacity:0.2"></rect><rect x="196.08" y="411.27" width="114.2" height="6.65" style="fill:#263238"></rect><rect x="196.08" y="411.27" width="114.2" height="6.65" style="opacity:0.2"></rect><rect x="104.56" y="157.29" width="297.26" height="205.39" rx="10.68" style="fill:#263238"></rect><rect x="104.56" y="157.29" width="297.26" height="205.39" rx="10.68" style="fill:#fff;opacity:0.5"></rect><rect x="109.62" y="164.04" width="286.12" height="176.99" style="fill:#263238"></rect><circle cx="253.19" cy="352.26" r="7.72" transform="translate(-147.82 517.74) rotate(-76.72)" style="fill:#e0e0e0"></circle><rect x="114.74" y="167.21" width="275.88" height="170.65" style="fill:#fff;opacity:0.7000000000000001"></rect><rect x="114.74" y="167.21" width="275.88" height="168.43" style="fill:#0095DA"></rect><g style="opacity:0.9"><rect x="114.74" y="167.21" width="275.88" height="170.65" style="fill:#fff"></rect></g><rect x="202.97" y="219.53" width="187.64" height="65.47" style="fill:#0095DA"></rect><g style="opacity:0.4"><rect x="202.97" y="219.53" width="187.64" height="65.47" style="fill:#fff"></rect></g><rect x="142.86" y="219.53" width="60.11" height="65.47" style="fill:#0095DA"></rect><g style="opacity:0.7000000000000001"><rect x="142.86" y="219.53" width="60.11" height="65.47" style="fill:#fff"></rect></g><rect x="114.74" y="219.53" width="28.12" height="65.47" style="fill:#0095DA"></rect><g style="opacity:0.6000000000000001"><rect x="114.74" y="219.53" width="28.12" height="65.47" style="fill:#fff"></rect></g><rect x="167.72" y="203.48" width="158.92" height="9.53" style="fill:#0095DA"></rect><g style="opacity:0.8"><rect x="167.72" y="203.48" width="158.92" height="9.53" style="fill:#fff"></rect></g><rect x="326.64" y="203.48" width="10.32" height="9.53" style="fill:#0095DA"></rect><g style="opacity:0.5"><rect x="326.64" y="203.48" width="10.32" height="9.53" style="fill:#fff"></rect></g><rect x="114.74" y="167.21" width="275.88" height="10.77" style="fill:#0095DA"></rect><path d="M364.22,172.59a3.09,3.09,0,1,1-3.09-3.08A3.09,3.09,0,0,1,364.22,172.59Z" style="fill:#fff"></path><path d="M376.08,172.59a3.09,3.09,0,1,1-3.09-3.08A3.09,3.09,0,0,1,376.08,172.59Z" style="fill:#fff"></path><path d="M387.94,172.59a3.09,3.09,0,1,1-3.09-3.08A3.09,3.09,0,0,1,387.94,172.59Z" style="fill:#fff"></path><path d="M123.65,212.21a5.22,5.22,0,0,1-1.55-.6l.87-2a5.46,5.46,0,0,0,1.28.53,4.77,4.77,0,0,0,1.36.2,2.17,2.17,0,0,0,.8-.1.37.37,0,0,0,.24-.33c0-.17-.1-.29-.31-.38a7.67,7.67,0,0,0-1-.27,11.31,11.31,0,0,1-1.54-.42,2.65,2.65,0,0,1-1.08-.74,2,2,0,0,1-.46-1.38,2.32,2.32,0,0,1,.43-1.37,2.74,2.74,0,0,1,1.26-1,5.19,5.19,0,0,1,2-.36,7.31,7.31,0,0,1,1.62.18,5.15,5.15,0,0,1,1.4.52l-.81,2a5,5,0,0,0-2.24-.6c-.69,0-1,.17-1,.51,0,.16.1.28.31.36a8,8,0,0,0,1,.26,10,10,0,0,1,1.55.39,2.66,2.66,0,0,1,1.09.73,1.93,1.93,0,0,1,.46,1.37,2.36,2.36,0,0,1-.42,1.37,2.93,2.93,0,0,1-1.27,1,5.17,5.17,0,0,1-2,.36A8.31,8.31,0,0,1,123.65,212.21Z" style="fill:#263238"></path><path d="M131.75,206.33H129.4v-2.1h7.4v2.1h-2.35v5.92h-2.7Z" style="fill:#263238"></path><path d="M139.27,211.9a4.2,4.2,0,0,1-1.62-5.82,4.09,4.09,0,0,1,1.62-1.49,4.9,4.9,0,0,1,2.32-.54,5,5,0,0,1,2.33.54,4.13,4.13,0,0,1,1.61,1.49,4.07,4.07,0,0,1,.59,2.16,4,4,0,0,1-.59,2.16,4.08,4.08,0,0,1-1.61,1.5,5,5,0,0,1-2.33.54A4.9,4.9,0,0,1,139.27,211.9Zm3.23-1.9a1.7,1.7,0,0,0,.65-.7,2.21,2.21,0,0,0,.24-1.06,2.27,2.27,0,0,0-.24-1.06,1.73,1.73,0,0,0-.65-.69,1.78,1.78,0,0,0-1.82,0,1.73,1.73,0,0,0-.65.69,2.27,2.27,0,0,0-.24,1.06,2.21,2.21,0,0,0,.24,1.06,1.7,1.7,0,0,0,.65.7,1.78,1.78,0,0,0,1.82,0Z" style="fill:#263238"></path><path d="M150.54,210.24h-.74v2h-2.7v-8H151a4.83,4.83,0,0,1,1.94.37,2.94,2.94,0,0,1,1.27,1.05,2.88,2.88,0,0,1,.44,1.61,2.84,2.84,0,0,1-.39,1.5,2.65,2.65,0,0,1-1.12,1l1.69,2.47H151.9Zm1.07-3.67a1.17,1.17,0,0,0-.82-.25h-1v1.88h1a1.17,1.17,0,0,0,.82-.25,1,1,0,0,0,0-1.38Z" style="fill:#263238"></path><path d="M162.3,210.21v2h-6.67v-8h6.52v2h-3.86v.94h3.39v1.95h-3.39v1.05Z" style="fill:#263238"></path><path d="M350.79,213a1.38,1.38,0,1,1-1.38-1.38A1.37,1.37,0,0,1,350.79,213Z" style="fill:#263238"></path><circle cx="358" cy="213" r="1.38" style="fill:#263238"></circle><path d="M348.26,203.26l-.93-3h-3.48v.94h2.78l2.61,8.49h9.15l.8-5.62Zm9.41,5.78-7.79-.08-1.47-5,9.89.73Z" style="fill:#263238"></path><path d="M246.74,277.11a2.76,2.76,0,1,1-2.75-2.75A2.75,2.75,0,0,1,246.74,277.11Z" style="fill:#0095DA"></path><path d="M246.74,277.11a2.76,2.76,0,1,1-2.75-2.75A2.75,2.75,0,0,1,246.74,277.11Z" style="fill:#fff;opacity:0.9"></path><path d="M254.78,277.11a2.76,2.76,0,1,1-2.76-2.75A2.75,2.75,0,0,1,254.78,277.11Z" style="fill:#0095DA"></path><path d="M254.78,277.11a2.76,2.76,0,1,1-2.76-2.75A2.75,2.75,0,0,1,254.78,277.11Z" style="fill:#fff;opacity:0.9"></path><path d="M262.88,277.26a2.76,2.76,0,1,1-2.76-2.75A2.76,2.76,0,0,1,262.88,277.26Z" style="fill:#0095DA"></path><path d="M262.88,277.26a2.76,2.76,0,1,1-2.76-2.75A2.76,2.76,0,0,1,262.88,277.26Z" style="fill:#fff;opacity:0.9"></path><path d="M271,277.26a2.76,2.76,0,1,1-2.76-2.75A2.77,2.77,0,0,1,271,277.26Z" style="fill:#0095DA"></path><path d="M271,277.26a2.76,2.76,0,1,1-2.76-2.75A2.77,2.77,0,0,1,271,277.26Z" style="fill:#fff;opacity:0.9"></path><path d="M279.08,277.26a2.76,2.76,0,1,1-2.76-2.75A2.77,2.77,0,0,1,279.08,277.26Z" style="fill:#0095DA"></path><path d="M279.08,277.26a2.76,2.76,0,1,1-2.76-2.75A2.77,2.77,0,0,1,279.08,277.26Z" style="fill:#fff;opacity:0.5"></path><path d="M287.18,277.26a2.76,2.76,0,1,1-2.76-2.75A2.77,2.77,0,0,1,287.18,277.26Z" style="fill:#0095DA"></path><path d="M287.18,277.26a2.76,2.76,0,1,1-2.76-2.75A2.77,2.77,0,0,1,287.18,277.26Z" style="fill:#fff;opacity:0.9"></path><path d="M295.28,277.26a2.76,2.76,0,1,1-2.76-2.75A2.77,2.77,0,0,1,295.28,277.26Z" style="fill:#0095DA"></path><path d="M295.28,277.26a2.76,2.76,0,1,1-2.76-2.75A2.77,2.77,0,0,1,295.28,277.26Z" style="fill:#fff;opacity:0.9"></path><path d="M303.37,277.26a2.76,2.76,0,1,1-2.75-2.75A2.76,2.76,0,0,1,303.37,277.26Z" style="fill:#0095DA"></path><path d="M303.37,277.26a2.76,2.76,0,1,1-2.75-2.75A2.76,2.76,0,0,1,303.37,277.26Z" style="fill:#fff;opacity:0.9"></path><path d="M218.81,255.76a11.1,11.1,0,0,1-3.31-1.28l1.86-4.21a11.68,11.68,0,0,0,2.74,1.14,10.91,10.91,0,0,0,2.91.43,4.36,4.36,0,0,0,1.71-.24.73.73,0,0,0,.51-.69c0-.36-.22-.63-.67-.81a15.57,15.57,0,0,0-2.21-.59,23.75,23.75,0,0,1-3.3-.89,5.68,5.68,0,0,1-2.3-1.56,4.22,4.22,0,0,1-1-2.95,5.07,5.07,0,0,1,.9-2.93,6,6,0,0,1,2.71-2.08,11.09,11.09,0,0,1,4.36-.76,16,16,0,0,1,3.46.38,10.67,10.67,0,0,1,3,1.11L228.46,244a10.72,10.72,0,0,0-4.77-1.27q-2.22,0-2.22,1.08c0,.34.22.6.66.77a14.55,14.55,0,0,0,2.17.55,21.22,21.22,0,0,1,3.3.84,5.82,5.82,0,0,1,2.34,1.55,4.18,4.18,0,0,1,1,2.94,5,5,0,0,1-.91,2.92,6.12,6.12,0,0,1-2.7,2.08,11.12,11.12,0,0,1-4.36.77A17.91,17.91,0,0,1,218.81,255.76Z" style="fill:#263238"></path><path d="M244.3,252.86h-6.5l-1.15,3h-5.87l7.48-17.12h5.68l7.48,17.12h-6Zm-1.59-4.15-1.66-4.31-1.66,4.31Z" style="fill:#263238"></path><path d="M252.35,238.73h5.77v12.64h7.73v4.48h-13.5Z" style="fill:#263238"></path><path d="M281.67,251.5v4.35H267.43V238.73h13.92v4.35h-8.24v2h7.24v4.15h-7.24v2.26Z" style="fill:#263238"></path><rect x="114.74" y="177.98" width="275.88" height="20.48" style="fill:#0095DA"></rect><g style="opacity:0.7000000000000001"><rect x="114.74" y="177.98" width="275.88" height="20.48" style="fill:#fff"></rect></g><path d="M375.06,193.83H146.27a5.61,5.61,0,0,1-5.61-5.61h0a5.61,5.61,0,0,1,5.61-5.61H375.06a5.61,5.61,0,0,1,5.61,5.61h0A5.61,5.61,0,0,1,375.06,193.83Z" style="fill:#263238"></path><path d="M375.06,193.83H146.27a5.61,5.61,0,0,1-5.61-5.61h0a5.61,5.61,0,0,1,5.61-5.61H375.06a5.61,5.61,0,0,1,5.61,5.61h0A5.61,5.61,0,0,1,375.06,193.83Z" style="fill:#fff;opacity:0.7000000000000001"></path><polygon points="373.28 183.92 374.68 186.75 377.8 187.2 375.54 189.41 376.07 192.52 373.28 191.05 370.48 192.52 371.02 189.41 368.76 187.2 371.88 186.75 373.28 183.92" style="fill:#0095DA"></polygon><rect x="145.87" y="186.03" width="103.86" height="4.66" rx="1.78" style="fill:#0095DA"></rect><polygon points="129.34 182.34 123.16 188.52 124.97 188.52 124.97 194.09 133.71 194.09 133.71 188.52 135.51 188.52 129.34 182.34" style="fill:#0095DA"></polygon><path d="M189.78,227.85H150.5a1.88,1.88,0,0,1-1.89-1.88h0a1.89,1.89,0,0,1,1.89-1.89h39.28a1.89,1.89,0,0,1,1.88,1.89h0A1.88,1.88,0,0,1,189.78,227.85Z" style="fill:#0095DA"></path><path d="M189.78,235.39H150.5a1.88,1.88,0,0,1-1.89-1.88h0a1.88,1.88,0,0,1,1.89-1.89h39.28a1.88,1.88,0,0,1,1.88,1.89h0A1.88,1.88,0,0,1,189.78,235.39Z" style="fill:#0095DA"></path><path d="M189.78,242.93H150.5a1.88,1.88,0,0,1-1.89-1.88h0a1.88,1.88,0,0,1,1.89-1.89h39.28a1.88,1.88,0,0,1,1.88,1.89h0A1.88,1.88,0,0,1,189.78,242.93Z" style="fill:#0095DA"></path><path d="M189.78,250.47H150.5a1.89,1.89,0,0,1-1.89-1.89h0a1.88,1.88,0,0,1,1.89-1.88h39.28a1.88,1.88,0,0,1,1.88,1.88h0A1.89,1.89,0,0,1,189.78,250.47Z" style="fill:#0095DA"></path><path d="M189.78,258H150.5a1.89,1.89,0,0,1-1.89-1.89h0a1.88,1.88,0,0,1,1.89-1.88h39.28a1.88,1.88,0,0,1,1.88,1.88h0A1.89,1.89,0,0,1,189.78,258Z" style="fill:#0095DA"></path><path d="M189.78,265.55H150.5a1.89,1.89,0,0,1-1.89-1.89h0a1.88,1.88,0,0,1,1.89-1.88h39.28a1.88,1.88,0,0,1,1.88,1.88h0A1.89,1.89,0,0,1,189.78,265.55Z" style="fill:#0095DA"></path><path d="M189.78,273.09H150.5a1.89,1.89,0,0,1-1.89-1.89h0a1.88,1.88,0,0,1,1.89-1.88h39.28a1.88,1.88,0,0,1,1.88,1.88h0A1.89,1.89,0,0,1,189.78,273.09Z" style="fill:#0095DA"></path><path d="M189.78,280.63H150.5a1.89,1.89,0,0,1-1.89-1.89h0a1.88,1.88,0,0,1,1.89-1.88h39.28a1.88,1.88,0,0,1,1.88,1.88h0A1.89,1.89,0,0,1,189.78,280.63Z" style="fill:#0095DA"></path><g style="opacity:0.5"><path d="M189.78,227.85H150.5a1.88,1.88,0,0,1-1.89-1.88h0a1.89,1.89,0,0,1,1.89-1.89h39.28a1.89,1.89,0,0,1,1.88,1.89h0A1.88,1.88,0,0,1,189.78,227.85Z" style="fill:#fff"></path><path d="M189.78,235.39H150.5a1.88,1.88,0,0,1-1.89-1.88h0a1.88,1.88,0,0,1,1.89-1.89h39.28a1.88,1.88,0,0,1,1.88,1.89h0A1.88,1.88,0,0,1,189.78,235.39Z" style="fill:#fff"></path><path d="M189.78,242.93H150.5a1.88,1.88,0,0,1-1.89-1.88h0a1.88,1.88,0,0,1,1.89-1.89h39.28a1.88,1.88,0,0,1,1.88,1.89h0A1.88,1.88,0,0,1,189.78,242.93Z" style="fill:#fff"></path><path d="M189.78,250.47H150.5a1.89,1.89,0,0,1-1.89-1.89h0a1.88,1.88,0,0,1,1.89-1.88h39.28a1.88,1.88,0,0,1,1.88,1.88h0A1.89,1.89,0,0,1,189.78,250.47Z" style="fill:#fff"></path><path d="M189.78,258H150.5a1.89,1.89,0,0,1-1.89-1.89h0a1.88,1.88,0,0,1,1.89-1.88h39.28a1.88,1.88,0,0,1,1.88,1.88h0A1.89,1.89,0,0,1,189.78,258Z" style="fill:#fff"></path><path d="M189.78,265.55H150.5a1.89,1.89,0,0,1-1.89-1.89h0a1.88,1.88,0,0,1,1.89-1.88h39.28a1.88,1.88,0,0,1,1.88,1.88h0A1.89,1.89,0,0,1,189.78,265.55Z" style="fill:#fff"></path><path d="M189.78,273.09H150.5a1.89,1.89,0,0,1-1.89-1.89h0a1.88,1.88,0,0,1,1.89-1.88h39.28a1.88,1.88,0,0,1,1.88,1.88h0A1.89,1.89,0,0,1,189.78,273.09Z" style="fill:#fff"></path><path d="M189.78,280.63H150.5a1.89,1.89,0,0,1-1.89-1.89h0a1.88,1.88,0,0,1,1.89-1.88h39.28a1.88,1.88,0,0,1,1.88,1.88h0A1.89,1.89,0,0,1,189.78,280.63Z" style="fill:#fff"></path></g><rect x="120.72" y="291.16" width="127.95" height="40.62" style="fill:#0095DA"></rect><g style="opacity:0.7000000000000001"><rect x="120.72" y="291.16" width="127.95" height="40.62" style="fill:#fff"></rect></g><rect x="127.56" y="294.96" width="22.24" height="22.24" style="fill:#0095DA"></rect><rect x="128.55" y="318.95" width="20.04" height="1.56" style="fill:#0095DA"></rect><rect x="128.55" y="318.95" width="20.04" height="1.56" style="fill:#fff;opacity:0.2"></rect><rect x="128.55" y="321.13" width="20.04" height="1.56" style="fill:#0095DA"></rect><rect x="128.55" y="321.13" width="20.04" height="1.56" style="fill:#fff;opacity:0.2"></rect><rect x="128.55" y="326.63" width="9.76" height="1.56" style="fill:#0095DA"></rect><rect x="128.55" y="326.63" width="9.76" height="1.56" style="fill:#fff;opacity:0.2"></rect><rect x="128.55" y="323.74" width="6.68" height="2.13" style="fill:#0095DA"></rect><rect x="128.55" y="323.74" width="6.68" height="2.13" style="fill:#fff;opacity:0.2"></rect><rect x="218.89" y="294.96" width="22.24" height="22.24" style="fill:#0095DA"></rect><rect x="219.89" y="318.95" width="20.04" height="1.56" style="fill:#0095DA"></rect><rect x="219.89" y="318.95" width="20.04" height="1.56" style="fill:#fff;opacity:0.2"></rect><rect x="219.89" y="321.13" width="20.04" height="1.56" style="fill:#0095DA"></rect><rect x="219.89" y="321.13" width="20.04" height="1.56" style="fill:#fff;opacity:0.2"></rect><rect x="219.89" y="326.63" width="9.76" height="1.56" style="fill:#0095DA"></rect><rect x="219.89" y="326.63" width="9.76" height="1.56" style="fill:#fff;opacity:0.2"></rect><rect x="219.89" y="323.74" width="6.68" height="2.13" style="fill:#0095DA"></rect><rect x="219.89" y="323.74" width="6.68" height="2.13" style="fill:#fff;opacity:0.2"></rect><rect x="159.01" y="294.96" width="22.24" height="22.24" style="fill:#0095DA"></rect><rect x="160.01" y="318.95" width="20.04" height="1.56" style="fill:#0095DA"></rect><rect x="160.01" y="318.95" width="20.04" height="1.56" style="fill:#fff;opacity:0.2"></rect><rect x="160.01" y="321.13" width="20.04" height="1.56" style="fill:#0095DA"></rect><rect x="160.01" y="321.13" width="20.04" height="1.56" style="fill:#fff;opacity:0.2"></rect><rect x="160.01" y="326.63" width="9.76" height="1.56" style="fill:#0095DA"></rect><rect x="160.01" y="326.63" width="9.76" height="1.56" style="fill:#fff;opacity:0.2"></rect><rect x="160.01" y="323.74" width="6.68" height="2.13" style="fill:#0095DA"></rect><rect x="160.01" y="323.74" width="6.68" height="2.13" style="fill:#fff;opacity:0.2"></rect><rect x="188.95" y="294.96" width="22.24" height="22.24" style="fill:#0095DA"></rect><rect x="189.95" y="318.95" width="20.04" height="1.56" style="fill:#0095DA"></rect><rect x="189.95" y="318.95" width="20.04" height="1.56" style="fill:#fff;opacity:0.2"></rect><rect x="189.95" y="321.13" width="20.04" height="1.56" style="fill:#0095DA"></rect><rect x="189.95" y="321.13" width="20.04" height="1.56" style="fill:#fff;opacity:0.2"></rect><rect x="189.95" y="326.63" width="9.76" height="1.56" style="fill:#0095DA"></rect><rect x="189.95" y="326.63" width="9.76" height="1.56" style="fill:#fff;opacity:0.2"></rect><rect x="189.95" y="323.74" width="6.68" height="2.13" style="fill:#0095DA"></rect><rect x="189.95" y="323.74" width="6.68" height="2.13" style="fill:#fff;opacity:0.2"></rect><rect x="254.17" y="291.16" width="127.95" height="40.62" style="fill:#0095DA"></rect><g style="opacity:0.7000000000000001"><rect x="254.17" y="291.16" width="127.95" height="40.62" style="fill:#fff"></rect></g><rect x="261.35" y="294.96" width="22.24" height="22.24" style="fill:#0095DA"></rect><rect x="262.35" y="318.95" width="20.04" height="1.56" style="fill:#0095DA"></rect><rect x="262.35" y="318.95" width="20.04" height="1.56" style="fill:#fff;opacity:0.2"></rect><rect x="262.35" y="321.13" width="20.04" height="1.56" style="fill:#0095DA"></rect><rect x="262.35" y="321.13" width="20.04" height="1.56" style="fill:#fff;opacity:0.2"></rect><rect x="262.35" y="326.63" width="9.76" height="1.56" style="fill:#0095DA"></rect><rect x="262.35" y="326.63" width="9.76" height="1.56" style="fill:#fff;opacity:0.2"></rect><rect x="262.35" y="323.74" width="6.68" height="2.13" style="fill:#0095DA"></rect><rect x="262.35" y="323.74" width="6.68" height="2.13" style="fill:#fff;opacity:0.2"></rect><rect x="352.69" y="294.96" width="22.24" height="22.24" style="fill:#0095DA"></rect><rect x="353.68" y="318.95" width="20.04" height="1.56" style="fill:#0095DA"></rect><rect x="353.68" y="318.95" width="20.04" height="1.56" style="fill:#fff;opacity:0.2"></rect><rect x="353.68" y="321.13" width="20.04" height="1.56" style="fill:#0095DA"></rect><rect x="353.68" y="321.13" width="20.04" height="1.56" style="fill:#fff;opacity:0.2"></rect><rect x="353.68" y="326.63" width="9.76" height="1.56" style="fill:#0095DA"></rect><rect x="353.68" y="326.63" width="9.76" height="1.56" style="fill:#fff;opacity:0.2"></rect><rect x="353.68" y="323.74" width="6.68" height="2.13" style="fill:#0095DA"></rect><rect x="353.68" y="323.74" width="6.68" height="2.13" style="fill:#fff;opacity:0.2"></rect><rect x="292.81" y="294.96" width="22.24" height="22.24" style="fill:#0095DA"></rect><rect x="293.81" y="318.95" width="20.04" height="1.56" style="fill:#0095DA"></rect><rect x="293.81" y="318.95" width="20.04" height="1.56" style="fill:#fff;opacity:0.2"></rect><rect x="293.81" y="321.13" width="20.04" height="1.56" style="fill:#0095DA"></rect><rect x="293.81" y="321.13" width="20.04" height="1.56" style="fill:#fff;opacity:0.2"></rect><rect x="293.81" y="326.63" width="9.76" height="1.56" style="fill:#0095DA"></rect><rect x="293.81" y="326.63" width="9.76" height="1.56" style="fill:#fff;opacity:0.2"></rect><rect x="293.81" y="323.74" width="6.68" height="2.13" style="fill:#0095DA"></rect><rect x="293.81" y="323.74" width="6.68" height="2.13" style="fill:#fff;opacity:0.2"></rect><rect x="322.75" y="294.96" width="22.24" height="22.24" style="fill:#0095DA"></rect><rect x="323.74" y="318.95" width="20.04" height="1.56" style="fill:#0095DA"></rect><rect x="323.74" y="318.95" width="20.04" height="1.56" style="fill:#fff;opacity:0.2"></rect><rect x="323.74" y="321.13" width="20.04" height="1.56" style="fill:#0095DA"></rect><rect x="323.74" y="321.13" width="20.04" height="1.56" style="fill:#fff;opacity:0.2"></rect><rect x="323.74" y="326.63" width="9.76" height="1.56" style="fill:#0095DA"></rect><rect x="323.74" y="326.63" width="9.76" height="1.56" style="fill:#fff;opacity:0.2"></rect><rect x="323.74" y="323.74" width="6.68" height="2.13" style="fill:#0095DA"></rect><rect x="323.74" y="323.74" width="6.68" height="2.13" style="fill:#fff;opacity:0.2"></rect><ellipse cx="340.95" cy="268.57" rx="40.46" ry="5.35" style="fill:#0095DA"></ellipse><ellipse cx="340.95" cy="268.57" rx="40.46" ry="5.35" style="opacity:0.1"></ellipse><path d="M345,266.4l-4.33-9.58H330.57l1.55,9a.8.8,0,0,1-.8.95H326.9a.43.43,0,0,0-.43.43v.48a.43.43,0,0,0,.43.43h17.8a.46.46,0,0,0,.46-.47v-.49A1.79,1.79,0,0,0,345,266.4Z" style="fill:#0095DA"></path><path d="M331.49,266.73H326.9a.43.43,0,0,0-.43.43v.48a.43.43,0,0,0,.43.43h17.8a.47.47,0,0,0,.47-.47v-.49a1.6,1.6,0,0,0-.05-.39Z" style="fill:#fff;opacity:0.2"></path><path d="M345.58,266.4l-4.33-9.58h-.57L345,266.4a1.79,1.79,0,0,1,.15.72v.49a.46.46,0,0,1-.46.47h.57a.47.47,0,0,0,.47-.47v-.49A1.8,1.8,0,0,0,345.58,266.4Z" style="fill:#0095DA"></path><g style="opacity:0.2"><path d="M345.58,266.4l-4.33-9.58h-.57L345,266.4a1.79,1.79,0,0,1,.15.72v.49a.46.46,0,0,1-.46.47h.57a.47.47,0,0,0,.47-.47v-.49A1.8,1.8,0,0,0,345.58,266.4Z"></path></g><polygon points="340.68 256.82 330.57 256.82 330.97 259.11 341.72 259.11 340.68 256.82" style="opacity:0.2"></polygon><path d="M356.17,257.83H313a1.43,1.43,0,0,1-1.44-1.58l2.73-31.17A1.75,1.75,0,0,1,316,223.5h43.15a1.42,1.42,0,0,1,1.43,1.58l-2.72,31.17A1.77,1.77,0,0,1,356.17,257.83Z" style="fill:#263238"></path><path d="M311.89,252.88l-.3,3.37a1.43,1.43,0,0,0,1.44,1.58h43.14a1.77,1.77,0,0,0,1.72-1.58l.29-3.37Z" style="fill:#0095DA"></path><path d="M356.66,251.93H313.58a.77.77,0,0,1-.78-.86l2.25-25.76a1,1,0,0,1,.93-.86h43.08a.76.76,0,0,1,.78.86l-2.25,25.76A1,1,0,0,1,356.66,251.93Z" style="fill:#0095DA"></path><path d="M356.66,251.93H313.58a.77.77,0,0,1-.78-.86l2.25-25.76a1,1,0,0,1,.93-.86h43.08a.76.76,0,0,1,.78.86l-2.25,25.76A1,1,0,0,1,356.66,251.93Z" style="fill:#0095DA"></path><path d="M360.13,223.5h-.95a1.42,1.42,0,0,1,1.43,1.58l-2.72,31.17a1.77,1.77,0,0,1-1.72,1.58h1a1.76,1.76,0,0,0,1.71-1.58l2.73-31.17A1.43,1.43,0,0,0,360.13,223.5Z" style="fill:#0095DA"></path><path d="M360.13,223.5h-.95a1.42,1.42,0,0,1,1.43,1.58l-2.72,31.17a1.77,1.77,0,0,1-1.72,1.58h1a1.76,1.76,0,0,0,1.71-1.58l2.73-31.17A1.43,1.43,0,0,0,360.13,223.5Z" style="fill:#0095DA;opacity:0.2"></path><g style="opacity:0.30000000000000004"><polygon points="358.49 224.45 356.83 224.45 350.99 251.93 352.64 251.93 358.49 224.45" style="fill:#fff"></polygon><polygon points="349.31 251.93 355.15 224.45 348.93 224.45 343.09 251.93 349.31 251.93" style="fill:#fff"></polygon></g><path d="M311.89,252.88l-.3,3.37a1.43,1.43,0,0,0,1.44,1.58h43.14a1.77,1.77,0,0,0,1.72-1.58l.29-3.37Z" style="fill:#fff;opacity:0.6000000000000001"></path><path d="M360.13,223.53h-.95a1.42,1.42,0,0,1,1.43,1.58l-2.72,31.17a1.77,1.77,0,0,1-1.72,1.58h1a1.76,1.76,0,0,0,1.71-1.58l2.73-31.17A1.43,1.43,0,0,0,360.13,223.53Z" style="fill:#fff;opacity:0.2"></path><path d="M338.32,266.57h26.43a1.22,1.22,0,0,0,1.23-1.35l-1.65-18.86a1.5,1.5,0,0,0-1.47-1.34H336.43a1.22,1.22,0,0,0-1.23,1.34l1.65,18.86A1.5,1.5,0,0,0,338.32,266.57Z" style="fill:#263238"></path><path d="M338.32,266.57h26.43a1.22,1.22,0,0,0,1.23-1.35l-1.65-18.86a1.5,1.5,0,0,0-1.47-1.34H336.43a1.22,1.22,0,0,0-1.23,1.34l1.65,18.86A1.5,1.5,0,0,0,338.32,266.57Z" style="fill:#fff;opacity:0.4"></path><path d="M338.8,266.57h26.43a1.22,1.22,0,0,0,1.23-1.35l-1.65-18.86a1.5,1.5,0,0,0-1.47-1.34H336.91a1.22,1.22,0,0,0-1.23,1.34l1.65,18.86A1.5,1.5,0,0,0,338.8,266.57Z" style="fill:#263238"></path><path d="M338.8,266.57h26.43a1.22,1.22,0,0,0,1.23-1.35l-1.65-18.86a1.5,1.5,0,0,0-1.47-1.34H336.91a1.22,1.22,0,0,0-1.23,1.34l1.65,18.86A1.5,1.5,0,0,0,338.8,266.57Z" style="fill:#fff;opacity:0.7000000000000001"></path><polygon points="338.4 265.23 365.39 265.23 363.74 246.36 336.75 246.36 338.4 265.23" style="fill:#0095DA"></polygon><polygon points="338.4 265.23 365.39 265.23 363.74 246.36 336.75 246.36 338.4 265.23" style="fill:#fff;opacity:0.5"></polygon><path d="M339,268.37h27a2.15,2.15,0,0,0,2.16-2.16h-31.3A2.15,2.15,0,0,0,339,268.37Z" style="fill:#263238"></path><path d="M339,268.37h27a2.15,2.15,0,0,0,2.16-2.16h-31.3A2.15,2.15,0,0,0,339,268.37Z" style="fill:#fff;opacity:0.2"></path><path d="M341.16,268.37h27a2.16,2.16,0,0,0,2.16-2.16H339A2.16,2.16,0,0,0,341.16,268.37Z" style="fill:#263238"></path><path d="M341.16,268.37h27a2.16,2.16,0,0,0,2.16-2.16H339A2.16,2.16,0,0,0,341.16,268.37Z" style="fill:#fff;opacity:0.5"></path><path d="M357.46,266.21a1.25,1.25,0,0,1-1.09.63h-3.43a1.24,1.24,0,0,1-1.09-.63Z" style="opacity:0.30000000000000004"></path><path d="M328.93,244.41h-2.14l-2.16,24.66h2.14a2,2,0,0,0,2-1.8l1.84-21.06A1.62,1.62,0,0,0,328.93,244.41Z" style="fill:#263238"></path><path d="M326.33,269.07h-8.81a1.62,1.62,0,0,1-1.64-1.8l1.84-21.06a2,2,0,0,1,1.95-1.8h8.82a1.63,1.63,0,0,1,1.64,1.8l-1.85,21.06A2,2,0,0,1,326.33,269.07Z" style="fill:#0095DA"></path><path d="M328.45,244.82h-2.29a.33.33,0,0,0-.32.26v.08a.82.82,0,0,1-.78.63h-2.18a.66.66,0,0,1-.67-.63v-.08a.27.27,0,0,0-.27-.26h-2.29a1.54,1.54,0,0,0-1.51,1.39l-1.84,21.06a1.25,1.25,0,0,0,1.26,1.39h8.82a1.54,1.54,0,0,0,1.5-1.39l1.84-21.06A1.24,1.24,0,0,0,328.45,244.82Z" style="fill:#0095DA"></path><path d="M328.45,244.82h-2.29a.33.33,0,0,0-.32.26v.08a.82.82,0,0,1-.78.63h-2.18a.66.66,0,0,1-.67-.63v-.08a.27.27,0,0,0-.27-.26h-2.29a1.54,1.54,0,0,0-1.51,1.39l-1.84,21.06a1.25,1.25,0,0,0,1.26,1.39h8.82a1.54,1.54,0,0,0,1.5-1.39l1.84-21.06A1.24,1.24,0,0,0,328.45,244.82Z" style="fill:#fff;opacity:0.7000000000000001"></path><g style="opacity:0.2"><path d="M323.49,245.06a.19.19,0,0,1-.19.17.15.15,0,0,1-.16-.17.19.19,0,0,1,.19-.18A.16.16,0,0,1,323.49,245.06Z"></path><path d="M324.75,244.88h-.6a.19.19,0,0,0-.19.18.15.15,0,0,0,.16.17h.6a.2.2,0,0,0,.19-.17A.16.16,0,0,0,324.75,244.88Z"></path></g><polygon points="319.13 245.79 319.31 245.79 319.33 245.6 319.14 245.6 319.13 245.79" style="fill:#0095DA"></polygon><polygon points="319.51 245.6 319.5 245.79 319.69 245.79 319.7 245.6 319.72 245.42 319.53 245.42 319.51 245.6" style="fill:#0095DA"></polygon><polygon points="319.92 245.23 319.9 245.42 319.89 245.6 319.87 245.79 320.06 245.79 320.07 245.6 320.09 245.42 320.1 245.23 319.92 245.23" style="fill:#0095DA"></polygon><path d="M327.89,245.24v.14h-.09l0,.27h.09v.14h.82l0-.55Zm.33.41h-.28l0-.27h.27Z" style="fill:#0095DA"></path><g style="opacity:0.4"><path d="M322.88,245.79l-6.09,22.63a1.3,1.3,0,0,0,.76.24H318l6.15-22.87Z" style="fill:#fff"></path><path d="M328.45,244.82h-2.29a.33.33,0,0,0-.32.26v.08a.82.82,0,0,1-.75.63l-6.15,22.87h4.69L329.71,246A1.24,1.24,0,0,0,328.45,244.82Z" style="fill:#fff"></path></g></g><g id="freepik--Character--inject-4"><path d="M178,223.26c.57,1.71,13.82,3.81,7,14.74s-10.82,3.55-8.66,15.88-13.47,4.15-21.47,6.72c-14.36,4.62-20.11-16.24-8.85-17.45s13.74-1.8,12.42-10.64S174.14,211.39,178,223.26Z" style="fill:#263238"></path><path d="M181.69,258.44c0,1,0,1.8.08,2.68s.12,1.74.19,2.61c.16,1.73.42,3.45.7,5.16a56.21,56.21,0,0,0,2.69,10.16l.23.62c.08.22.12.35.31.78a5.06,5.06,0,0,0,1.59,2,5.43,5.43,0,0,0,2.13.94,7.71,7.71,0,0,0,1.86.14,12.37,12.37,0,0,0,3-.56,22.17,22.17,0,0,0,2.6-1,45.32,45.32,0,0,0,9-5.4l-1.56-2.45c-1.45.69-3,1.39-4.46,2a40.66,40.66,0,0,1-4.49,1.65,13.49,13.49,0,0,1-4.12.72c-.56,0-.87-.21-.77-.21s.07.06.07,0l-.29-1a66.16,66.16,0,0,1-2-9.35c-.23-1.59-.39-3.19-.55-4.8s-.24-3.25-.29-4.74Z" style="fill:#ffc3bd"></path><path d="M186.19,251.72c2.31.78,3.26,10.61,3.26,10.61l-6.83,3.95S177.1,256,179.1,253.56,182.81,250.6,186.19,251.72Z" style="fill:#0095DA"></path><path d="M186.19,251.72c2.31.78,3.26,10.61,3.26,10.61l-6.83,3.95S177.1,256,179.1,253.56,182.81,250.6,186.19,251.72Z" style="fill:#fff;opacity:0.2"></path><path d="M185.81,253.88l1.11,9.92-.53.17a87.63,87.63,0,0,1-2,12.2,81.21,81.21,0,0,1-2.33-9.54Z" style="opacity:0.2"></path><path d="M203.2,274.83l4.19-5.62,1.58,5.62s-2.63,2.59-4.91,1.88Z" style="fill:#ffc3bd"></path><path d="M205,268.52h0a1.4,1.4,0,0,1,1,1.18l.34,2.74-1.81.85Z" style="fill:#ffc3bd"></path><polygon points="211.28 267.43 212.34 271.67 208.97 274.83 207.4 269.21 211.28 267.43" style="fill:#ffc3bd"></polygon><path d="M186.19,251.72s2.75,2.31-5.16,35.51c-9.48,0-19.6.06-24.46,0,1.07-9.43,2.62-18.11-.49-37.86a67.87,67.87,0,0,1,10-.58,73.83,73.83,0,0,1,10.56.76C181.12,250.3,186.19,251.72,186.19,251.72Z" style="fill:#0095DA"></path><path d="M186.19,251.72s2.75,2.31-5.16,35.51c-10.93.07-18.32,0-24.46,0,1.07-9.43,2.62-18.11-.49-37.86a67.87,67.87,0,0,1,10-.58,73.83,73.83,0,0,1,10.56.76C181.12,250.3,186.19,251.72,186.19,251.72Z" style="fill:#fff;opacity:0.2"></path><path d="M161.89,257.5c-.53,3.61-2.18,7.52-4,12.08,0-2.94-.15-5.73-.38-8.31Z" style="opacity:0.2"></path><path d="M152.86,256.13c-.13.64-.31,1.43-.48,2.15s-.36,1.47-.57,2.2c-.42,1.46-.85,2.92-1.38,4.32a30.61,30.61,0,0,1-4,7.72c-.2.26-.46.59-.55.69a6.71,6.71,0,0,1-.65.58,18,18,0,0,1-1.73,1.23c-1.26.8-2.6,1.59-4,2.33s-2.76,1.51-4.18,2.23l-4.23,2.17,1,2.72a84.92,84.92,0,0,0,9.29-3.08c1.53-.62,3-1.27,4.57-2.06a24.74,24.74,0,0,0,2.31-1.36,13,13,0,0,0,1.22-.94c.49-.46.72-.75,1.05-1.1a27.13,27.13,0,0,0,3-4.38,35.42,35.42,0,0,0,2.22-4.66,48.54,48.54,0,0,0,1.65-4.8c.23-.81.44-1.62.64-2.45s.36-1.61.51-2.54Z" style="fill:#ffc3bd"></path><path d="M156.08,249.37c-2.38.54-5.76,8.36-5.76,8.36l8.57,7.12s3.78-6.46,3-9.54S158.8,248.75,156.08,249.37Z" style="fill:#0095DA"></path><path d="M156.08,249.37c-2.38.54-5.76,8.36-5.76,8.36l8.57,7.12s3.78-6.46,3-9.54S158.8,248.75,156.08,249.37Z" style="fill:#fff;opacity:0.2"></path><path d="M132.56,281.6l-5.43-3,1.13,5.73s3.52,1.11,5.23-.56Z" style="fill:#ffc3bd"></path><polygon points="122.36 279.38 123.57 284.12 128.26 284.33 127.13 278.61 122.36 279.38" style="fill:#ffc3bd"></polygon><path d="M168,237c.42,3.45.63,9.72-1.91,11.82,0,0,.68,3.51,7,4,7,.5,3.57-3.21,3.57-3.21-3.72-1.18-3.42-4-2.57-6.57Z" style="fill:#ffc3bd"></path><path d="M170.44,239.42,174,243a11.48,11.48,0,0,0-.46,1.86c-1.43-.32-3.31-2.05-3.35-3.58A5.12,5.12,0,0,1,170.44,239.42Z" style="opacity:0.2"></path><path d="M164.08,231.24c1.3,5.54,1.73,7.92,5.06,10.31,5,3.6,11.52.79,11.9-5,.35-5.24-1.84-13.44-7.71-14.73A7.77,7.77,0,0,0,164.08,231.24Z" style="fill:#ffc3bd"></path><path d="M177.43,222.79c1.87,2.6-16.3,12.26-14.55,6.15S172.56,216,177.43,222.79Z" style="fill:#263238"></path><path d="M168.18,229c.45,2.7-3.12,5.9-3.12,5.9s-4.57-3.38-1.7-5.18S168.18,229,168.18,229Z" style="fill:#263238"></path><path d="M173.64,231.2c.08.45.38.78.68.73s.48-.46.4-.92-.38-.78-.68-.73S173.56,230.74,173.64,231.2Z" style="fill:#263238"></path><path d="M178.8,230.32c.08.45.38.78.68.73s.48-.46.4-.92-.38-.78-.68-.73S178.72,229.86,178.8,230.32Z" style="fill:#263238"></path><path d="M179.07,229.45l1.05-.51S179.7,229.9,179.07,229.45Z" style="fill:#263238"></path><path d="M177,231.41a12.45,12.45,0,0,0,2.13,2.64,2,2,0,0,1-1.58.58Z" style="fill:#ed847e"></path><path d="M175.35,236.84a4.18,4.18,0,0,0,.68-.06.14.14,0,0,0,.11-.16.14.14,0,0,0-.16-.11,3.68,3.68,0,0,1-3.19-.91.13.13,0,0,0-.19,0,.14.14,0,0,0,0,.19A3.82,3.82,0,0,0,175.35,236.84Z" style="fill:#263238"></path><path d="M163.44,236.64a4.16,4.16,0,0,0,2.53,1.92c1.41.36,2.09-.91,1.67-2.23s-1.57-2.8-3-2.58A1.87,1.87,0,0,0,163.44,236.64Z" style="fill:#ffc3bd"></path><path d="M171.39,230.5a.28.28,0,0,0,.26-.19,3.18,3.18,0,0,1,1.92-1.72.28.28,0,0,0,.17-.35.26.26,0,0,0-.34-.17,3.71,3.71,0,0,0-2.27,2.08.27.27,0,0,0,.18.34Z" style="fill:#263238"></path><path d="M179.94,227.67a.27.27,0,0,0,.24-.14.28.28,0,0,0-.1-.37,2.67,2.67,0,0,0-2.48-.16.27.27,0,0,0-.12.36.27.27,0,0,0,.37.12h0a2.17,2.17,0,0,1,2,.15A.22.22,0,0,0,179.94,227.67Z" style="fill:#263238"></path><path d="M173.91,230.33l1.05-.51S174.54,230.78,173.91,230.33Z" style="fill:#263238"></path><path d="M164.26,404.6a46.85,46.85,0,0,1-6.82-8.29c-1.26-1.8-1.5-1.35-2.84-3.11a2.12,2.12,0,0,1,1.21-3.2,20,20,0,0,0,3.45-1l4.62,3.4c-.85,2.17.27,8.3,2.64,10.82C168.22,405,165.6,405.83,164.26,404.6Z" style="fill:#263238"></path><path d="M179.75,287.23s14.8,43.23,15,57.24c.07,4.28-31.24,48.93-31.24,48.93-.79.61-4.09-3.49-4.28-4.57,8.18-15.81,14.08-34.26,21.49-44.95C162.35,313.06,158,287.23,158,287.23Z" style="fill:#263238"></path><g style="opacity:0.2"><path d="M179.75,287.23s14.8,43.23,15,57.24c.07,4.28-31.24,48.93-31.24,48.93-.79.61-4.09-3.49-4.28-4.57,8.18-15.81,14.08-34.26,21.49-44.95C162.35,313.06,158,287.23,158,287.23Z" style="fill:#fff"></path></g><path d="M167.76,308.42s8.34,17.68,8.62,27.17c-2.6-4.63-8.14-16.67-9.85-20.44Z" style="opacity:0.30000000000000004"></path><path d="M164.26,378.29c-.4,4.29-1.14,10.48-1,15.17a3.34,3.34,0,0,1-1.46-.85l-.58-7.76Z" style="opacity:0.2"></path><path d="M168.41,420.14c-4.63,0-5.24-.07-7.83-.16-2.23-.07-2.76.2-4.55.16-1.49,0-1.43-1.46-1-3.1.23-.83.58-2.57.9-3.91l6.77-.49c1,1.82,3.1,4.41,5.71,4.76S170.25,420.14,168.41,420.14Z" style="fill:#263238"></path><path d="M173.24,287.23s-4.87,44.63-7.7,63c-3,19.33-3.35,50.34-2.61,63-1.08.63-5,.19-7.14-.48,0,0-6.81-38.71-3.41-60.59-3.31-54,5.63-64.94,5.63-64.94Z" style="fill:#263238"></path><g style="opacity:0.2"><path d="M173.24,287.23s-4.87,44.63-7.7,63c-3,19.33-3.35,50.34-2.61,63-1.08.63-5,.19-7.14-.48,0,0-6.81-38.71-3.41-60.59-3.31-54,5.63-64.94,5.63-64.94Z" style="fill:#fff"></path></g><path d="M106.86,339.89h37.35a1.76,1.76,0,0,0,1.71-1.36l6-26.28H99.65l5.5,26.25A1.75,1.75,0,0,0,106.86,339.89Z" style="fill:#0095DA"></path><path d="M106.86,339.89h37.35a1.76,1.76,0,0,0,1.71-1.36l6-26.28H99.65l5.5,26.25A1.75,1.75,0,0,0,106.86,339.89Z" style="fill:#fff;opacity:0.1"></path><path d="M143.51,323.27h0a.75.75,0,0,0,.74-.75v-7a.75.75,0,0,0-.74-.75h0a.75.75,0,0,0-.75.75v7A.75.75,0,0,0,143.51,323.27Z" style="fill:#263238"></path><path d="M140.52,323.27h0a.76.76,0,0,0,.75-.75v-7a.76.76,0,0,0-.75-.75h0a.76.76,0,0,0-.75.75v7A.76.76,0,0,0,140.52,323.27Z" style="fill:#263238"></path><path d="M137.59,323.27h0a.76.76,0,0,0,.75-.75v-7a.76.76,0,0,0-.75-.75h0a.76.76,0,0,0-.75.75v7A.76.76,0,0,0,137.59,323.27Z" style="fill:#263238"></path><path d="M114.19,323.27h0a.75.75,0,0,0,.75-.75v-7a.75.75,0,0,0-.75-.75h0a.75.75,0,0,0-.74.75v7A.75.75,0,0,0,114.19,323.27Z" style="fill:#263238"></path><path d="M111.16,323.27h0a.75.75,0,0,0,.75-.75v-7a.75.75,0,0,0-.75-.75h0a.75.75,0,0,0-.74.75v7A.75.75,0,0,0,111.16,323.27Z" style="fill:#263238"></path><path d="M108.15,323.27h0a.75.75,0,0,0,.74-.75v-7a.75.75,0,0,0-.74-.75h0a.75.75,0,0,0-.75.75v7A.75.75,0,0,0,108.15,323.27Z" style="fill:#263238"></path><path d="M130.58,323.27h0a.76.76,0,0,0,.75-.75v-7a.76.76,0,0,0-.75-.75h0a.76.76,0,0,0-.75.75v7A.76.76,0,0,0,130.58,323.27Z" style="fill:#263238"></path><path d="M127.67,323.27h0a.76.76,0,0,0,.75-.75v-7a.76.76,0,0,0-.75-.75h0a.76.76,0,0,0-.75.75v7A.76.76,0,0,0,127.67,323.27Z" style="fill:#263238"></path><path d="M124.68,323.27h0a.75.75,0,0,0,.75-.75v-7a.75.75,0,0,0-.75-.75h0a.75.75,0,0,0-.74.75v7A.75.75,0,0,0,124.68,323.27Z" style="fill:#263238"></path><path d="M121.7,323.27h0a.75.75,0,0,0,.74-.75v-7a.75.75,0,0,0-.74-.75h0a.75.75,0,0,0-.75.75v7A.75.75,0,0,0,121.7,323.27Z" style="fill:#263238"></path><path d="M143.51,335.59h0a.74.74,0,0,0,.74-.74v-7a.74.74,0,0,0-.74-.74h0a.74.74,0,0,0-.75.74v7A.74.74,0,0,0,143.51,335.59Z" style="fill:#263238"></path><path d="M140.52,335.59h0a.75.75,0,0,0,.75-.74v-7a.75.75,0,0,0-.75-.74h0a.75.75,0,0,0-.75.74v7A.75.75,0,0,0,140.52,335.59Z" style="fill:#263238"></path><path d="M137.59,335.59h0a.75.75,0,0,0,.75-.74v-7a.75.75,0,0,0-.75-.74h0a.75.75,0,0,0-.75.74v7A.75.75,0,0,0,137.59,335.59Z" style="fill:#263238"></path><path d="M114.19,335.59h0a.74.74,0,0,0,.75-.74v-7a.74.74,0,0,0-.75-.74h0a.74.74,0,0,0-.74.74v7A.74.74,0,0,0,114.19,335.59Z" style="fill:#263238"></path><path d="M111.16,335.59h0a.74.74,0,0,0,.75-.74v-7a.74.74,0,0,0-.75-.74h0a.74.74,0,0,0-.74.74v7A.74.74,0,0,0,111.16,335.59Z" style="fill:#263238"></path><path d="M108.15,335.59h0a.74.74,0,0,0,.74-.74v-7a.74.74,0,0,0-.74-.74h0a.74.74,0,0,0-.75.74v7A.74.74,0,0,0,108.15,335.59Z" style="fill:#263238"></path><path d="M130.58,335.59h0a.75.75,0,0,0,.75-.74v-7a.75.75,0,0,0-.75-.74h0a.75.75,0,0,0-.75.74v7A.75.75,0,0,0,130.58,335.59Z" style="fill:#263238"></path><path d="M127.67,335.59h0a.75.75,0,0,0,.75-.74v-7a.75.75,0,0,0-.75-.74h0a.75.75,0,0,0-.75.74v7A.75.75,0,0,0,127.67,335.59Z" style="fill:#263238"></path><path d="M124.68,335.59h0a.74.74,0,0,0,.75-.74v-7a.74.74,0,0,0-.75-.74h0a.74.74,0,0,0-.74.74v7A.74.74,0,0,0,124.68,335.59Z" style="fill:#263238"></path><path d="M121.7,335.59h0a.74.74,0,0,0,.74-.74v-7a.74.74,0,0,0-.74-.74h0a.74.74,0,0,0-.75.74v7A.74.74,0,0,0,121.7,335.59Z" style="fill:#263238"></path><polygon points="151.75 313.06 99.88 313.06 99.41 311.38 152.25 311.38 151.75 313.06" style="opacity:0.2"></polygon><path d="M98.35,312.25h55.27a2.24,2.24,0,0,0,2.24-2.24h0a2.24,2.24,0,0,0-2.24-2.24H98.35A2.24,2.24,0,0,0,96.11,310h0A2.24,2.24,0,0,0,98.35,312.25Z" style="fill:#0095DA"></path><path d="M98.35,312.25h55.27a2.24,2.24,0,0,0,2.24-2.24h0a2.24,2.24,0,0,0-2.24-2.24H98.35A2.24,2.24,0,0,0,96.11,310h0A2.24,2.24,0,0,0,98.35,312.25Z" style="fill:#fff;opacity:0.30000000000000004"></path><path d="M126,311.38h0a1.37,1.37,0,0,0,1.38-1.37V282a1.37,1.37,0,0,0-1.38-1.37h0a1.37,1.37,0,0,0-1.37,1.37v28A1.37,1.37,0,0,0,126,311.38Z" style="fill:#263238"></path></g></svg>