<svg xmlns="http://www.w3.org/2000/svg" xmlns:xlink="http://www.w3.org/1999/xlink" viewBox="0 0 500 500"><defs><clipPath id="freepik--clip-path--inject-68"><path d="M93.38,244.81l4.49,36.44c0,5.84,10.9,10.58,24.35,10.58s24.35-4.74,24.35-10.58l4.49-36.44Z" style="fill:#fff;stroke:#263238;stroke-linecap:round;stroke-linejoin:round"></path></clipPath></defs><g id="freepik--background-simple--inject-68"><path d="M399.94,329.83s54.54-63.22,40.53-144.07S354.2,62.58,305.73,67.37,209,119.67,161.64,125.54,42.89,173.2,57.32,252.71,115.6,340,186.58,342.92,358,382.25,399.94,329.83Z" style="fill:#5FBAED"></path><path d="M399.94,329.83s54.54-63.22,40.53-144.07S354.2,62.58,305.73,67.37,209,119.67,161.64,125.54,42.89,173.2,57.32,252.71,115.6,340,186.58,342.92,358,382.25,399.94,329.83Z" style="fill:#fff;opacity:0.7000000000000001"></path></g><g id="freepik--Desk--inject-68"><line x1="65" y1="259" x2="444" y2="259" style="fill:none;stroke:#263238;stroke-linecap:round;stroke-linejoin:round"></line></g><g id="freepik--Plant--inject-68"><ellipse cx="112.18" cy="282.46" rx="32.2" ry="11.95" style="fill:#263238"></ellipse><path d="M93.38,244.81l4.49,36.44c0,5.84,10.9,10.58,24.35,10.58s24.35-4.74,24.35-10.58l4.49-36.44Z" style="fill:#fff"></path><g style="clip-path:url(#freepik--clip-path--inject-68)"><path d="M118,244.81H93.38l4.49,36.44c0,5.84,10.9,10.58,24.35,10.58q1.31,0,2.58-.06C117.13,278.17,117,258.21,118,244.81Z" style="fill:#5FBAED"></path><path d="M118,244.81H93.38l4.49,36.44c0,5.84,10.9,10.58,24.35,10.58q1.31,0,2.58-.06C117.13,278.17,117,258.21,118,244.81Z" style="fill:#fff;opacity:0.4"></path></g><path d="M93.38,244.81l4.49,36.44c0,5.84,10.9,10.58,24.35,10.58s24.35-4.74,24.35-10.58l4.49-36.44Z" style="fill:none;stroke:#263238;stroke-linecap:round;stroke-linejoin:round"></path><ellipse cx="122.22" cy="244.81" rx="28.84" ry="12.53" style="fill:#fff;stroke:#263238;stroke-linecap:round;stroke-linejoin:round"></ellipse><ellipse cx="122.22" cy="244.48" rx="25.77" ry="10.9" style="fill:#263238;stroke:#263238;stroke-linecap:round;stroke-linejoin:round"></ellipse><path d="M124.18,245.61s-2.3-21.22-16.63-37.28-10.82-14.09-10.82-14.09" style="fill:none;stroke:#263238;stroke-linecap:round;stroke-linejoin:round"></path><path d="M150,182.52s-17.2,17.21-20.07,36.71-1,22.65-1,22.65" style="fill:none;stroke:#263238;stroke-linecap:round;stroke-linejoin:round"></path><path d="M127,244.44s-3.36-12-6.8-36.11-1.72-36.7-1.72-36.7" style="fill:none;stroke:#263238;stroke-linecap:round;stroke-linejoin:round"></path><path d="M98.22,200.8s-4.81,5.22-12.21-5-4.94-22.14-4.94-22.14,3.77,5.75,9.48,8.17S104.6,198,98.22,200.8Z" style="fill:#5FBAED"></path><path d="M118.44,177.36s-6.88,1.72-7.45-10.89,8-21.22,8-21.22,0,6.88,3.44,12S125.33,178.51,118.44,177.36Z" style="fill:#5FBAED"></path><path d="M146.83,188.89s-6.7-2.33-.27-13.19,18.34-13.36,18.34-13.36-3.77,5.76-3.72,12S152,193.62,146.83,188.89Z" style="fill:#5FBAED"></path><path d="M126.47,242.74s4.59-20.65,14.34-30.39a31.3,31.3,0,0,1,21.79-9.18s-11.47,4.59-14.91,13.76-9.2,29.25-9.2,29.25H109.85s-3.45-7.45-13.2-16.06-25.81-14.33-25.81-14.33,17.78-6.31,30.4-1.15,21.79,27,21.79,27Z" style="fill:#5FBAED"></path><path d="M130.89,242.69s-11.38-7.81-23.8-6.51-13.45,11.39-14,14.32a33.76,33.76,0,0,0-.51,5.21s16-4.88,25.86-6.51S132.44,252.13,130.89,242.69Z" style="fill:#5FBAED"></path><path d="M126.65,242.69s7.16-7.81,15-6.51,8.46,11.39,8.78,14.32a51.79,51.79,0,0,1,.33,5.21s-10.09-4.88-16.27-6.51S125.67,252.13,126.65,242.69Z" style="fill:#5FBAED"></path></g><g id="freepik--Device--inject-68"><path d="M169.61,117.12H386.07a8.14,8.14,0,0,1,8.14,8.14V276.58a0,0,0,0,1,0,0H161.47a0,0,0,0,1,0,0V125.25A8.14,8.14,0,0,1,169.61,117.12Z" style="fill:#263238;stroke:#263238;stroke-linecap:round;stroke-linejoin:round"></path><polygon points="429.11 347.07 126.56 347.07 161.47 276.58 394.2 276.58 429.11 347.07" style="fill:#fff;stroke:#263238;stroke-linecap:round;stroke-linejoin:round"></polygon><rect x="175.57" y="129.74" width="204.54" height="134.21" style="fill:#5FBAED;stroke:#263238;stroke-linecap:round;stroke-linejoin:round"></rect><circle cx="211.96" cy="204.25" r="28.91" transform="translate(-82.35 209.7) rotate(-45)" style="fill:#263238"></circle><circle cx="278.77" cy="204.25" r="28.91" transform="translate(-62.78 256.94) rotate(-45)" style="fill:#263238"></circle><circle cx="345.58" cy="204.25" r="28.91" transform="translate(-37.34 83.76) rotate(-13.12)" style="fill:#263238"></circle><path d="M192.09,196.88s12.74-34.8,20.23-34.8S233,196.47,233,196.47l-2.23.2s-12.95-30.14-16.79-32-10.93,9.1-19.63,32.17Z" style="fill:#fff;stroke:#263238;stroke-linecap:round;stroke-linejoin:round"></path><path d="M193.38,194.85h38.29a4.32,4.32,0,0,1,4.32,4.32v20.54a3.46,3.46,0,0,1-3.46,3.46h-40a3.46,3.46,0,0,1-3.46-3.46V199.18A4.32,4.32,0,0,1,193.38,194.85Z" style="fill:#fff;stroke:#263238;stroke-linecap:round;stroke-linejoin:round"></path><line x1="189.46" y1="210.03" x2="231.94" y2="210.03" style="fill:#fff;stroke:#263238;stroke-linecap:round;stroke-linejoin:round"></line><path d="M233.77,195.86s-1,1.22-1,4.66-1.21,21.65-1,22.45,1.42.21,1.42.21" style="fill:#fff;stroke:#263238;stroke-linecap:round;stroke-linejoin:round"></path><rect x="209.08" y="205.98" width="3.24" height="7.28" style="fill:#fff;stroke:#263238;stroke-linecap:round;stroke-linejoin:round"></rect><path d="M253.47,187.34s13.51-1.18,29.37-1.18,23.31,1,23.5,2-2.15,13.71-2.15,14.88,0,17.63-.39,18.61-2.16,1.76-2.94,1.95-41.91.59-43.08.59a2.35,2.35,0,0,1-2.16-2.35c0-1.17.59-14.1-.39-18.8S253.47,187.34,253.47,187.34Z" style="fill:#fff;stroke:#263238;stroke-linecap:round;stroke-linejoin:round"></path><path d="M268,193.8s-.2-15.47,1.37-20.76a11,11,0,0,1,10.38-7.83A14.54,14.54,0,0,1,292.83,176c2,7.63.39,17.23.2,18.21s-2.35,3.72-2.75-1.57.4-17.62-1.17-21.15a9.33,9.33,0,0,0-10.18-5.09c-4.12,1-6.27,2.74-7.05,7.83s.78,16.85-.2,19.39S268.35,197.32,268,193.8Z" style="fill:#fff;stroke:#263238;stroke-linecap:round;stroke-linejoin:round"></path><path d="M257.19,187.53s-1,10.38-1,14.3-.2,6.46-.2,6.46" style="fill:#fff;stroke:#263238;stroke-linecap:round;stroke-linejoin:round"></path><path d="M303,187.73s.4,10.38.4,16.45" style="fill:none;stroke:#263238;stroke-linecap:round;stroke-linejoin:round"></path><path d="M353.5,185.74a1,1,0,0,1-1-.86c-1.93-12.07-4.35-25.38-5.59-29.7-1.83,4.08-5.85,17.07-9.18,28.88a1,1,0,0,1-2-.55c0-.08,2.14-7.61,4.46-15.12,4.83-15.66,5.74-16,6.46-16.23a1.19,1.19,0,0,1,1.08.16c.53.39,1.26.92,4.14,16.84,1.39,7.68,2.61,15.32,2.62,15.4a1,1,0,0,1-.85,1.17A.66.66,0,0,1,353.5,185.74Z" style="fill:#fff;stroke:#263238;stroke-linecap:round;stroke-linejoin:round"></path><path d="M321.05,182.38s19.91-1.22,26.77-.95,19.05,1,19,1.79-.29,26-1,31-4.28,11.28-7.38,12.43-13.52.73-18.86.51-10.15-.92-12.55-4.33-4.12-17.73-4.12-17.73Z" style="fill:#fff;stroke:#263238;stroke-linecap:round;stroke-linejoin:round"></path><path d="M336.87,187.86a2,2,0,1,0-2.12,1.95A2,2,0,0,0,336.87,187.86Z" style="fill:#fff;stroke:#263238;stroke-linecap:round;stroke-linejoin:round"></path><circle cx="353.89" cy="188.81" r="2.03" transform="translate(109.58 506.93) rotate(-80.56)" style="fill:#fff;stroke:#263238;stroke-linecap:round;stroke-linejoin:round"></circle><path d="M324.53,215.88s14.3-1.21,40.47.11" style="fill:#fff;stroke:#263238;stroke-linecap:round;stroke-linejoin:round"></path><rect x="178.74" y="133.7" width="197.51" height="16.06" style="fill:#263238"></rect><line x1="274.53" y1="142.85" x2="294.11" y2="142.85" style="fill:none;stroke:#fff;stroke-miterlimit:10;stroke-width:2px"></line><line x1="316.76" y1="142.85" x2="336.34" y2="142.85" style="fill:none;stroke:#fff;stroke-miterlimit:10;stroke-width:2px"></line><path d="M370.06,137.88a.4.4,0,0,0-.33-.17H359l-.41-1.24a.42.42,0,0,0-.4-.28h-2.72a.41.41,0,0,0-.41.41.41.41,0,0,0,.41.42h2.42l2.62,7.87a.42.42,0,0,0,.4.28h.15a1.48,1.48,0,0,0-.23.77,1.44,1.44,0,1,0,2.87,0,1.39,1.39,0,0,0-.23-.77h2a1.47,1.47,0,0,0-.22.77,1.44,1.44,0,1,0,2.87,0,1.48,1.48,0,0,0-.23-.77h.32a.42.42,0,0,0,.42-.42.41.41,0,0,0-.42-.41h-7l-.46-1.38h7.8a.41.41,0,0,0,.4-.3l1.19-4.42A.42.42,0,0,0,370.06,137.88Zm-7.8,8.67a.61.61,0,1,1,.6-.61A.61.61,0,0,1,362.26,146.55Zm4.41,0a.61.61,0,1,1,.6-.61A.6.6,0,0,1,366.67,146.55Zm1.11-4.42h-1.54v-3.58h1.54Zm-3.92-3.58h1.55v3.58h-1.55Zm-.83,3.58h-1.55v-3.58H363Zm-3.76-3.58h1.38v3.58h-.19Zm9.35,2.11v-2.11h.56Z" style="fill:#fff"></path><path d="M373.29,137.62a3.05,3.05,0,1,0-3.05,3A3.06,3.06,0,0,0,373.29,137.62Z" style="fill:#fff"></path><path d="M369,139.5a.37.37,0,0,1-.14-.23.62.62,0,0,1,.16-.56l1.4-1.37a.7.7,0,0,0,.28-.51.39.39,0,0,0-.16-.32.6.6,0,0,0-.38-.12H370l-.18,0-.14.06-.15.09-.13.07a.25.25,0,0,1-.17,0,.3.3,0,0,1-.17-.11.69.69,0,0,1-.1-.19.3.3,0,0,1,0-.21.34.34,0,0,1,.16-.18,2.23,2.23,0,0,1,1.24-.33,1.31,1.31,0,0,1,.92.35,1.06,1.06,0,0,1,.35.8,1.3,1.3,0,0,1-.16.62,1.94,1.94,0,0,1-.5.59l-1.07.85h1.4a.21.21,0,0,1,.19.11.49.49,0,0,1,.07.25.6.6,0,0,1-.07.27.23.23,0,0,1-.19.11h-2A.36.36,0,0,1,369,139.5Z" style="fill:#263238"></path><path d="M258.4,146.55H186.1a4.81,4.81,0,0,1-4.81-4.82h0a4.81,4.81,0,0,1,4.81-4.81h72.3a4.81,4.81,0,0,1,4.81,4.81h0A4.81,4.81,0,0,1,258.4,146.55Z" style="fill:#fff"></path><line x1="197.11" y1="242.16" x2="226.71" y2="242.16" style="fill:none;stroke:#263238;stroke-linecap:round;stroke-linejoin:round;stroke-width:2px"></line><line x1="197.11" y1="247.77" x2="226.71" y2="247.77" style="fill:none;stroke:#263238;stroke-linecap:round;stroke-linejoin:round;stroke-width:2px"></line><line x1="263.96" y1="242.16" x2="293.57" y2="242.16" style="fill:none;stroke:#263238;stroke-linecap:round;stroke-linejoin:round;stroke-width:2px"></line><line x1="263.96" y1="247.77" x2="293.57" y2="247.77" style="fill:none;stroke:#263238;stroke-linecap:round;stroke-linejoin:round;stroke-width:2px"></line><line x1="330.82" y1="242.16" x2="360.42" y2="242.16" style="fill:none;stroke:#263238;stroke-linecap:round;stroke-linejoin:round;stroke-width:2px"></line><line x1="330.82" y1="247.77" x2="360.42" y2="247.77" style="fill:none;stroke:#263238;stroke-linecap:round;stroke-linejoin:round;stroke-width:2px"></line><polygon points="268.13 298.9 268.53 290.31 256.24 290.31 255.42 298.9 268.13 298.9" style="fill:#263238;stroke:#fff;stroke-linecap:round;stroke-linejoin:round"></polygon><polygon points="293.55 298.9 293.13 290.31 280.83 290.31 280.84 298.9 293.55 298.9" style="fill:#263238;stroke:#fff;stroke-linecap:round;stroke-linejoin:round"></polygon><polygon points="359.74 308.08 372.88 308.08 369.8 298.9 357.09 298.9 359.74 308.08" style="fill:#263238;stroke:#fff;stroke-linecap:round;stroke-linejoin:round"></polygon><polygon points="255.42 298.9 256.24 290.31 243.94 290.31 242.72 298.9 255.42 298.9" style="fill:#263238;stroke:#fff;stroke-linecap:round;stroke-linejoin:round"></polygon><polygon points="230.01 298.9 231.64 290.31 219.35 290.31 217.3 298.9 230.01 298.9" style="fill:#263238;stroke:#fff;stroke-linecap:round;stroke-linejoin:round"></polygon><polygon points="344.38 298.9 342.32 290.31 330.02 290.31 331.67 298.9 344.38 298.9" style="fill:#263238;stroke:#fff;stroke-linecap:round;stroke-linejoin:round"></polygon><polygon points="357.09 298.9 354.61 290.31 342.32 290.31 344.38 298.9 357.09 298.9" style="fill:#263238;stroke:#fff;stroke-linecap:round;stroke-linejoin:round"></polygon><polygon points="217.3 298.9 219.35 290.31 207.05 290.31 204.59 298.9 217.3 298.9" style="fill:#263238;stroke:#fff;stroke-linecap:round;stroke-linejoin:round"></polygon><polygon points="306.26 298.9 305.43 290.31 293.13 290.31 293.55 298.9 306.26 298.9" style="fill:#263238;stroke:#fff;stroke-linecap:round;stroke-linejoin:round"></polygon><polygon points="369.8 298.9 366.91 290.31 354.61 290.31 357.09 298.9 369.8 298.9" style="fill:#263238;stroke:#fff;stroke-linecap:round;stroke-linejoin:round"></polygon><polygon points="331.67 298.9 330.02 290.31 317.72 290.31 318.96 298.9 331.67 298.9" style="fill:#263238;stroke:#fff;stroke-linecap:round;stroke-linejoin:round"></polygon><polygon points="318.96 298.9 317.72 290.31 305.43 290.31 306.26 298.9 318.96 298.9" style="fill:#263238;stroke:#fff;stroke-linecap:round;stroke-linejoin:round"></polygon><polygon points="280.84 298.9 280.83 290.31 268.53 290.31 268.13 298.9 280.84 298.9" style="fill:#263238;stroke:#fff;stroke-linecap:round;stroke-linejoin:round"></polygon><polygon points="191.88 298.9 179.17 298.9 175.66 308.08 188.81 308.08 191.88 298.9" style="fill:#263238;stroke:#fff;stroke-linecap:round;stroke-linejoin:round"></polygon><polygon points="194.75 290.31 182.46 290.31 179.17 298.9 191.88 298.9 194.75 290.31" style="fill:#263238;stroke:#fff;stroke-linecap:round;stroke-linejoin:round"></polygon><polygon points="204.59 298.9 207.05 290.31 194.75 290.31 191.88 298.9 204.59 298.9" style="fill:#263238;stroke:#fff;stroke-linecap:round;stroke-linejoin:round"></polygon><polygon points="171.9 317.92 167.86 328.5 181.99 328.5 185.52 317.92 171.9 317.92" style="fill:#263238;stroke:#fff;stroke-linecap:round;stroke-linejoin:round"></polygon><polygon points="188.81 308.08 175.66 308.08 171.9 317.92 185.52 317.92 188.81 308.08" style="fill:#263238;stroke:#fff;stroke-linecap:round;stroke-linejoin:round"></polygon><polygon points="185.52 317.92 181.99 328.5 196.12 328.5 199.14 317.92 185.52 317.92" style="fill:#263238;stroke:#fff;stroke-linecap:round;stroke-linejoin:round"></polygon><polygon points="242.72 298.9 243.94 290.31 231.64 290.31 230.01 298.9 242.72 298.9" style="fill:#263238;stroke:#fff;stroke-linecap:round;stroke-linejoin:round"></polygon><polygon points="241.4 308.08 242.72 298.9 230.01 298.9 228.26 308.08 241.4 308.08" style="fill:#263238;stroke:#fff;stroke-linecap:round;stroke-linejoin:round"></polygon><polygon points="228.26 308.08 230.01 298.9 217.3 298.9 215.11 308.08 228.26 308.08" style="fill:#263238;stroke:#fff;stroke-linecap:round;stroke-linejoin:round"></polygon><polygon points="254.55 308.08 255.42 298.9 242.72 298.9 241.4 308.08 254.55 308.08" style="fill:#263238;stroke:#fff;stroke-linecap:round;stroke-linejoin:round"></polygon><polygon points="204.59 298.9 191.88 298.9 188.81 308.08 201.96 308.08 204.59 298.9" style="fill:#263238;stroke:#fff;stroke-linecap:round;stroke-linejoin:round"></polygon><polygon points="362.57 317.92 376.19 317.92 372.88 308.08 359.74 308.08 362.57 317.92" style="fill:#263238;stroke:#fff;stroke-linecap:round;stroke-linejoin:round"></polygon><polygon points="215.11 308.08 217.3 298.9 204.59 298.9 201.96 308.08 215.11 308.08" style="fill:#263238;stroke:#fff;stroke-linecap:round;stroke-linejoin:round"></polygon><polygon points="188.81 308.08 185.52 317.92 199.14 317.92 201.96 308.08 188.81 308.08" style="fill:#263238;stroke:#fff;stroke-linecap:round;stroke-linejoin:round"></polygon><polygon points="333.44 308.08 331.67 298.9 318.96 298.9 320.29 308.08 333.44 308.08" style="fill:#263238;stroke:#fff;stroke-linecap:round;stroke-linejoin:round"></polygon><polygon points="320.29 308.08 318.96 298.9 306.26 298.9 307.14 308.08 320.29 308.08" style="fill:#263238;stroke:#fff;stroke-linecap:round;stroke-linejoin:round"></polygon><polygon points="359.74 308.08 357.09 298.9 344.38 298.9 346.59 308.08 359.74 308.08" style="fill:#263238;stroke:#fff;stroke-linecap:round;stroke-linejoin:round"></polygon><polygon points="280.85 308.08 280.84 298.9 268.13 298.9 267.7 308.08 280.85 308.08" style="fill:#263238;stroke:#fff;stroke-linecap:round;stroke-linejoin:round"></polygon><polygon points="307.14 308.08 306.26 298.9 293.55 298.9 294 308.08 307.14 308.08" style="fill:#263238;stroke:#fff;stroke-linecap:round;stroke-linejoin:round"></polygon><polygon points="294 308.08 293.55 298.9 280.84 298.9 280.85 308.08 294 308.08" style="fill:#263238;stroke:#fff;stroke-linecap:round;stroke-linejoin:round"></polygon><polygon points="267.7 308.08 268.13 298.9 255.42 298.9 254.55 308.08 267.7 308.08" style="fill:#263238;stroke:#fff;stroke-linecap:round;stroke-linejoin:round"></polygon><polygon points="307.14 308.08 308.1 317.92 321.71 317.92 320.29 308.08 307.14 308.08" style="fill:#263238;stroke:#fff;stroke-linecap:round;stroke-linejoin:round"></polygon><polygon points="320.29 308.08 321.71 317.92 335.33 317.92 333.44 308.08 320.29 308.08" style="fill:#263238;stroke:#fff;stroke-linecap:round;stroke-linejoin:round"></polygon><polygon points="201.96 308.08 199.14 317.92 212.76 317.92 215.11 308.08 201.96 308.08" style="fill:#263238;stroke:#fff;stroke-linecap:round;stroke-linejoin:round"></polygon><polygon points="333.44 308.08 335.33 317.92 348.95 317.92 346.59 308.08 333.44 308.08" style="fill:#263238;stroke:#fff;stroke-linecap:round;stroke-linejoin:round"></polygon><polygon points="280.85 308.08 280.86 317.92 294.48 317.92 294 308.08 280.85 308.08" style="fill:#263238;stroke:#fff;stroke-linecap:round;stroke-linejoin:round"></polygon><polygon points="346.59 308.08 348.95 317.92 362.57 317.92 359.74 308.08 346.59 308.08" style="fill:#263238;stroke:#fff;stroke-linecap:round;stroke-linejoin:round"></polygon><polygon points="294 308.08 294.48 317.92 308.1 317.92 307.14 308.08 294 308.08" style="fill:#263238;stroke:#fff;stroke-linecap:round;stroke-linejoin:round"></polygon><polygon points="228.26 308.08 226.38 317.92 240 317.92 241.4 308.08 228.26 308.08" style="fill:#263238;stroke:#fff;stroke-linecap:round;stroke-linejoin:round"></polygon><polygon points="215.11 308.08 212.76 317.92 226.38 317.92 228.26 308.08 215.11 308.08" style="fill:#263238;stroke:#fff;stroke-linecap:round;stroke-linejoin:round"></polygon><polygon points="267.7 308.08 267.24 317.92 280.86 317.92 280.85 308.08 267.7 308.08" style="fill:#263238;stroke:#fff;stroke-linecap:round;stroke-linejoin:round"></polygon><polygon points="254.55 308.08 253.62 317.92 267.24 317.92 267.7 308.08 254.55 308.08" style="fill:#263238;stroke:#fff;stroke-linecap:round;stroke-linejoin:round"></polygon><polygon points="241.4 308.08 240 317.92 253.62 317.92 254.55 308.08 241.4 308.08" style="fill:#263238;stroke:#fff;stroke-linecap:round;stroke-linejoin:round"></polygon><polygon points="346.59 308.08 344.38 298.9 331.67 298.9 333.44 308.08 346.59 308.08" style="fill:#263238;stroke:#fff;stroke-linecap:round;stroke-linejoin:round"></polygon><polygon points="194.75 290.31 197.69 281.51 185.81 281.51 182.46 290.31 194.75 290.31" style="fill:#263238;stroke:#fff;stroke-linecap:round;stroke-linejoin:round"></polygon><polygon points="182.46 290.31 171.1 290.31 167.44 298.9 179.17 298.9 182.46 290.31" style="fill:#263238;stroke:#fff;stroke-linecap:round;stroke-linejoin:round"></polygon><polygon points="185.81 281.51 174.85 281.51 171.1 290.31 182.46 290.31 185.81 281.51" style="fill:#263238;stroke:#fff;stroke-linecap:round;stroke-linejoin:round"></polygon><polygon points="179.17 298.9 167.44 298.9 163.53 308.08 175.66 308.08 179.17 298.9" style="fill:#263238;stroke:#fff;stroke-linecap:round;stroke-linejoin:round"></polygon><polygon points="175.66 308.08 163.53 308.08 159.33 317.92 171.9 317.92 175.66 308.08" style="fill:#263238;stroke:#fff;stroke-linecap:round;stroke-linejoin:round"></polygon><polygon points="171.9 317.92 159.33 317.92 154.82 328.5 167.86 328.5 171.9 317.92" style="fill:#263238;stroke:#fff;stroke-linecap:round;stroke-linejoin:round"></polygon><polygon points="382.5 298.9 386.03 308.08 397.66 308.08 393.75 298.9 382.5 298.9" style="fill:#263238;stroke:#fff;stroke-linecap:round;stroke-linejoin:round"></polygon><polygon points="389.81 317.92 401.86 317.92 397.66 308.08 386.03 308.08 389.81 317.92" style="fill:#263238;stroke:#fff;stroke-linecap:round;stroke-linejoin:round"></polygon><polygon points="393.87 328.5 406.37 328.5 401.86 317.92 389.81 317.92 393.87 328.5" style="fill:#263238;stroke:#fff;stroke-linecap:round;stroke-linejoin:round"></polygon><polygon points="293.13 290.31 292.7 281.51 280.82 281.51 280.83 290.31 293.13 290.31" style="fill:#263238;stroke:#fff;stroke-linecap:round;stroke-linejoin:round"></polygon><polygon points="382.5 298.9 393.75 298.9 390.09 290.31 379.21 290.31 382.5 298.9" style="fill:#263238;stroke:#fff;stroke-linecap:round;stroke-linejoin:round"></polygon><polygon points="376.19 317.92 389.81 317.92 386.03 308.08 372.88 308.08 376.19 317.92" style="fill:#263238;stroke:#fff;stroke-linecap:round;stroke-linejoin:round"></polygon><polygon points="207.05 290.31 209.57 281.51 197.69 281.51 194.75 290.31 207.05 290.31" style="fill:#263238;stroke:#fff;stroke-linecap:round;stroke-linejoin:round"></polygon><polygon points="366.91 290.31 369.8 298.9 382.5 298.9 379.21 290.31 366.91 290.31" style="fill:#263238;stroke:#fff;stroke-linecap:round;stroke-linejoin:round"></polygon><polygon points="390.09 290.31 386.34 281.51 375.83 281.51 379.21 290.31 390.09 290.31" style="fill:#263238;stroke:#fff;stroke-linecap:round;stroke-linejoin:round"></polygon><polygon points="379.21 290.31 375.83 281.51 363.96 281.51 366.91 290.31 379.21 290.31" style="fill:#263238;stroke:#fff;stroke-linecap:round;stroke-linejoin:round"></polygon><polygon points="335.33 317.92 337.37 328.5 351.49 328.5 348.95 317.92 335.33 317.92" style="fill:#263238;stroke:#fff;stroke-linecap:round;stroke-linejoin:round"></polygon><polygon points="379.74 328.5 393.87 328.5 389.81 317.92 376.19 317.92 379.74 328.5" style="fill:#263238;stroke:#fff;stroke-linecap:round;stroke-linejoin:round"></polygon><polygon points="366.91 290.31 363.96 281.51 352.08 281.51 354.61 290.31 366.91 290.31" style="fill:#263238;stroke:#fff;stroke-linecap:round;stroke-linejoin:round"></polygon><polygon points="362.57 317.92 365.62 328.5 379.74 328.5 376.19 317.92 362.57 317.92" style="fill:#263238;stroke:#fff;stroke-linecap:round;stroke-linejoin:round"></polygon><polygon points="348.95 317.92 351.49 328.5 365.62 328.5 362.57 317.92 348.95 317.92" style="fill:#263238;stroke:#fff;stroke-linecap:round;stroke-linejoin:round"></polygon><polygon points="372.88 308.08 386.03 308.08 382.5 298.9 369.8 298.9 372.88 308.08" style="fill:#263238;stroke:#fff;stroke-linecap:round;stroke-linejoin:round"></polygon><polygon points="256.24 290.31 257.07 281.51 245.19 281.51 243.94 290.31 256.24 290.31" style="fill:#263238;stroke:#fff;stroke-linecap:round;stroke-linejoin:round"></polygon><polygon points="354.61 290.31 352.08 281.51 340.2 281.51 342.32 290.31 354.61 290.31" style="fill:#263238;stroke:#fff;stroke-linecap:round;stroke-linejoin:round"></polygon><polygon points="243.94 290.31 245.19 281.51 233.32 281.51 231.64 290.31 243.94 290.31" style="fill:#263238;stroke:#fff;stroke-linecap:round;stroke-linejoin:round"></polygon><polygon points="280.83 290.31 280.82 281.51 268.95 281.51 268.53 290.31 280.83 290.31" style="fill:#263238;stroke:#fff;stroke-linecap:round;stroke-linejoin:round"></polygon><polygon points="231.64 290.31 233.32 281.51 221.44 281.51 219.35 290.31 231.64 290.31" style="fill:#263238;stroke:#fff;stroke-linecap:round;stroke-linejoin:round"></polygon><polygon points="219.35 290.31 221.44 281.51 209.57 281.51 207.05 290.31 219.35 290.31" style="fill:#263238;stroke:#fff;stroke-linecap:round;stroke-linejoin:round"></polygon><polygon points="268.53 290.31 268.95 281.51 257.07 281.51 256.24 290.31 268.53 290.31" style="fill:#263238;stroke:#fff;stroke-linecap:round;stroke-linejoin:round"></polygon><polygon points="342.32 290.31 340.2 281.51 328.33 281.51 330.02 290.31 342.32 290.31" style="fill:#263238;stroke:#fff;stroke-linecap:round;stroke-linejoin:round"></polygon><polygon points="330.02 290.31 328.33 281.51 316.45 281.51 317.72 290.31 330.02 290.31" style="fill:#263238;stroke:#fff;stroke-linecap:round;stroke-linejoin:round"></polygon><polygon points="305.43 290.31 304.57 281.51 292.7 281.51 293.13 290.31 305.43 290.31" style="fill:#263238;stroke:#fff;stroke-linecap:round;stroke-linejoin:round"></polygon><polygon points="335.33 317.92 321.71 317.92 308.1 317.92 294.48 317.92 280.86 317.92 267.24 317.92 253.62 317.92 240 317.92 226.38 317.92 212.76 317.92 199.14 317.92 196.12 328.5 210.24 328.5 224.37 328.5 238.49 328.5 252.62 328.5 266.74 328.5 280.87 328.5 294.99 328.5 309.12 328.5 323.24 328.5 337.37 328.5 335.33 317.92" style="fill:#263238;stroke:#fff;stroke-linecap:round;stroke-linejoin:round"></polygon><polygon points="317.72 290.31 316.45 281.51 304.57 281.51 305.43 290.31 317.72 290.31" style="fill:#263238;stroke:#fff;stroke-linecap:round;stroke-linejoin:round"></polygon><rect x="126.56" y="347.07" width="302.69" height="4.3" style="fill:#263238;stroke:#263238;stroke-linecap:round;stroke-linejoin:round"></rect></g><g id="freepik--Hands--inject-68"><path d="M153.29,453.07s22.36-46.88,25.8-55.91S230.7,365.33,233.28,361s6-17.63,8.61-23.22.43-7.75,2.15-12.48,4.73-10.32.43-10.32-9.89,4.73-12.05,12.47-10.75,14.2-10.75,14.2l.43-5.16c.43-5.17,5.59-21.08,7.74-24.52s15.06-17.2,16.78-17.63,5.59,3.44,9.46,3.44,4.73-3,2.58-4.73-3.87-7.32-9-10.76-10.75,0-10.75,0a68.25,68.25,0,0,0-4.73-6.88c-2.16-2.58-6.46-6.88-12.05-8.17a11.2,11.2,0,0,0-9.46,2.15,48.47,48.47,0,0,0-6-.86c-4.3-.43-7.31,2.15-11.61,9s-11.19,20.22-11.19,20.22,1.72-12.48,1.72-17.64.43-10.75-1.72-12.9-4.3.43-5.16,8.17-10.75,34.84-12,42.15-15.05,47.74-22.37,58.07-46.88,55.48-46.88,55.48M215.22,300.82s6-17.21,7.74-17.21,8.17,4.73,8.17,4.73Z" style="fill:#fff;stroke:#263238;stroke-linecap:round;stroke-linejoin:round"></path><path d="M163.16,336.22s7.33-22.93,8.55-28.83c.87-4.16,3.95.69,3.95.69s6-4.29,6-.69a10.89,10.89,0,0,0,2.25,6.31s-1.35-6.31,5-8.11,9,.9,7.66,8.11.9,4.5,2.25,2.7-.45-6.31,7.66-9.46,12.62,0,11.26,6.76-3.6,12.61-3.6,22.52,1.8,18.92,3.6,18.92,11.72-10.36,13.52-3.6-1.8,6.76-11.26,14.86-34.24,14.87-38.29,23-6.76,13.06-9.46,13.51-7.21-15.76-20.28-14-26.58,14.87-23.42,9.46,14.86-14,21.62-29.28S163.16,336.22,163.16,336.22Z" style="fill:#5FBAED"></path><path d="M163.16,336.22s7.33-22.93,8.55-28.83c.87-4.16,3.95.69,3.95.69s6-4.29,6-.69a10.89,10.89,0,0,0,2.25,6.31s-1.35-6.31,5-8.11,9,.9,7.66,8.11.9,4.5,2.25,2.7-.45-6.31,7.66-9.46,12.62,0,11.26,6.76-3.6,12.61-3.6,22.52,1.8,18.92,3.6,18.92,11.72-10.36,13.52-3.6-1.8,6.76-11.26,14.86-34.24,14.87-38.29,23-6.76,13.06-9.46,13.51-7.21-15.76-20.28-14-26.58,14.87-23.42,9.46,14.86-14,21.62-29.28S163.16,336.22,163.16,336.22Z" style="fill:#fff;opacity:0.4"></path><path d="M212.64,269.42s-12,20.65-14.62,24.95-4.73,8.17-7.75,9.89-5.16,5.59-4.3,6.88" style="fill:#fff;stroke:#263238;stroke-linecap:round;stroke-linejoin:round"></path><path d="M183.82,297.81a23.72,23.72,0,0,1-5.16,6.45c-3.44,3-7.31,5.59-8.17,9a16.9,16.9,0,0,1-3,6" style="fill:#fff;stroke:#263238;stroke-linecap:round;stroke-linejoin:round"></path><path d="M215.22,300.82s-8.6,5.59-10.75,7.31-3,5.59-3,5.59" style="fill:#fff;stroke:#263238;stroke-linecap:round;stroke-linejoin:round"></path><line x1="238.88" y1="282.32" x2="231.13" y2="288.34" style="fill:#fff;stroke:#263238;stroke-linecap:round;stroke-linejoin:round"></line><path d="M448.06,426.11s-39.14-38.27-42.15-46-2.15-9.46-4.73-15S390.86,350,390.43,343.11s-3.87-23.23-3.87-28.82-1.29-13.76-3-15.05-11.19-3.45-11.19-3.45-5.16-16.34-9-17.2S351.72,282,351.72,282s-1.72-3-3.87-7.74-6-4.73-10.75-3-14.2,5.59-14.2,5.59-10.75-8.17-14.19-3-7.74,14.62-8.6,18.06,5.09,3.32,6.38,2.46,6.13-4.42,6.13-4.42,9.42,7.12,11.14,11,5.16,21.93,5.59,25.37-1.29,14.19-1.29,14.19-8.17-14.62-12-18.92-9.46-6.88-13.76-6.88-7.31,4.73-3.87,6.88,7.31,4.73,8.17,7.74,9.46,18.5,10.32,24.09,6.88,16.77,12.47,20.21,26.24,7.74,30.11,11.62,31.4,58.49,31.4,58.49M330.64,285h6.89l7.31,14.2Z" style="fill:#fff;stroke:#263238;stroke-linecap:round;stroke-linejoin:round"></path><path d="M385.25,320.45s-5-14-10.81-11.26-6.76,4.06-6.76,4.06-3.16-5-8.56-3.16-7.21-1.8-7.21-1.8-7.21-4.5-11.71-.9-.9,13.51.9,21.62-2.25,23.88-3.15,25.23-13.07-4.05-14.42.9,4.05,15.77,14.87,19.37,18.92,5.41,23,9.46,14.42,33.34,23.43,35.59,18.92-10.81,28.38-9.91,21.62,7.66,16.67,1.8-25.68-27-27-34.68-6.31-13.07-8.56-16.67S388,334.87,386.6,329A43.5,43.5,0,0,1,385.25,320.45Z" style="fill:#5FBAED"></path><path d="M385.25,320.45s-5-14-10.81-11.26-6.76,4.06-6.76,4.06-3.16-5-8.56-3.16-7.21-1.8-7.21-1.8-7.21-4.5-11.71-.9-.9,13.51.9,21.62-2.25,23.88-3.15,25.23-13.07-4.05-14.42.9,4.05,15.77,14.87,19.37,18.92,5.41,23,9.46,14.42,33.34,23.43,35.59,18.92-10.81,28.38-9.91,21.62,7.66,16.67,1.8-25.68-27-27-34.68-6.31-13.07-8.56-16.67S388,334.87,386.6,329A43.5,43.5,0,0,1,385.25,320.45Z" style="fill:#fff;opacity:0.4"></path><path d="M351.72,282l6,11.18s2.45,5.87,4.93,8.34,4.64,4.33,5.57,7.43,1.23,4.64,1.23,4.64" style="fill:#fff;stroke:#263238;stroke-linecap:round;stroke-linejoin:round"></path><line x1="372.36" y1="295.79" x2="378.39" y2="308.27" style="fill:#fff;stroke:#263238;stroke-linecap:round;stroke-linejoin:round"></line><line x1="322.9" y1="276.87" x2="330.64" y2="285.04" style="fill:#fff;stroke:#263238;stroke-linecap:round;stroke-linejoin:round"></line><path d="M380,311.14a56.61,56.61,0,0,0,.93,7.74" style="fill:#fff;stroke:#263238;stroke-linecap:round;stroke-linejoin:round"></path><path d="M349.06,304s3.71,2.78,4.33,6.49" style="fill:#fff;stroke:#263238;stroke-linecap:round;stroke-linejoin:round"></path><path d="M312.62,290s-3.4-1.36-3.4-4.08" style="fill:#fff;stroke:#263238;stroke-linecap:round;stroke-linejoin:round"></path><path d="M337.53,285s-2.46-1.89-2.46-4.27" style="fill:#fff;stroke:#263238;stroke-linecap:round;stroke-linejoin:round"></path></g></svg>